<svg width="30" height="30" viewBox="0 0 30 30" fill="none" xmlns="http://www.w3.org/2000/svg">
<path d="M15.0001 5.92285C12.1732 5.92285 9.87305 8.22301 9.87305 11.0499C9.87305 13.8767 12.1732 16.1769 15.0001 16.1769C17.8269 16.1769 20.1271 13.8767 20.1271 11.0499C20.1271 8.22301 17.8269 5.92285 15.0001 5.92285Z" fill="#679FF5" fill-opacity="0.91"/>
<path d="M13.8481 23.4281L13.8205 23.4029L13.1673 22.8118L11.6299 21.4209L9.95837 21.6008L8.93544 21.7103L8.69292 21.7367L7.91192 21.8205L5.45239 27.0471L9.26122 27.0975L11.7266 30L14.5294 24.0445L13.8481 23.4281Z" fill="#679FF5" fill-opacity="0.91"/>
<path d="M22.088 21.8205L21.307 21.7367L21.0645 21.7109L20.0415 21.6008L18.37 21.4209L16.8326 22.8118L16.1794 23.4029L16.1518 23.4281L15.4705 24.0445L18.2733 30L20.7387 27.0975L24.5475 27.0471L22.088 21.8205Z" fill="#679FF5" fill-opacity="0.91"/>
<path d="M23.9794 11.0497L25.5091 7.63523L22.2645 5.77207L21.4952 2.11031L17.7749 2.50986L15.0002 0L12.2255 2.50992L8.50512 2.11037L7.73584 5.77207L4.49121 7.63518L6.02092 11.0497L4.49121 14.4642L7.73584 16.3273L8.50512 19.989L8.78871 19.9586L9.81223 19.8484L10.8352 19.7388L11.1094 19.7095H11.11L12.2255 19.5894L13.0645 20.3481L13.9498 21.1491L14.2257 21.3987L14.6312 21.7654L15.0002 22.0993L15.3693 21.7654L15.7747 21.3987L16.0507 21.1491L16.7391 20.5269L16.7397 20.5263L17.7749 19.5895L19.583 19.7834H19.5836L19.7675 19.8033L20.1882 19.8485H20.1888L21.2117 19.9586L21.4953 19.9891L22.2646 16.3273L25.5092 14.4642L23.9794 11.0497ZM15.0002 17.9344C11.2042 17.9344 8.11547 14.8462 8.11547 11.0497C8.11547 7.25373 11.2042 4.16496 15.0002 4.16496C18.7961 4.16496 21.8849 7.25373 21.8849 11.0497C21.8849 14.8462 18.7961 17.9344 15.0002 17.9344Z" fill="#679FF5" fill-opacity="0.91"/>
</svg>
