<svg width="92" height="120" viewBox="0 0 92 120" fill="none" xmlns="http://www.w3.org/2000/svg">
<rect x="0.325439" y="0.917969" width="91.4691" height="5.17749" rx="0.3" fill="white"/>
<rect width="91.4691" height="5.17749" rx="0.3" transform="matrix(1 0 0 -1 0.325439 120)" fill="#507FB5"/>
<rect x="8.95459" y="9.5459" width="74.2107" height="5.17749" rx="0.3" fill="white"/>
<rect width="74.2107" height="5.17749" rx="0.3" transform="matrix(1 0 0 -1 8.95459 111.373)" fill="#507FB5"/>
<rect width="5.17749" height="82.8399" rx="0.3" transform="matrix(-1 0 0 1 40.0195 18.1768)" fill="url(#paint0_linear_326_61576)"/>
<rect width="5.17749" height="82.8399" rx="0.3" transform="matrix(-1 0 0 1 31.3904 18.1768)" fill="url(#paint1_linear_326_61576)"/>
<rect width="5.17749" height="82.8399" rx="0.3" transform="matrix(-1 0 0 1 48.6487 18.1768)" fill="url(#paint2_linear_326_61576)"/>
<rect width="5.17749" height="82.8399" rx="0.3" transform="matrix(-1 0 0 1 57.2778 18.1768)" fill="url(#paint3_linear_326_61576)"/>
<rect width="5.17749" height="82.8399" rx="0.3" transform="matrix(-1 0 0 1 65.9067 18.1768)" fill="url(#paint4_linear_326_61576)"/>
<defs>
<linearGradient id="paint0_linear_326_61576" x1="2.58875" y1="0" x2="2.58875" y2="82.8399" gradientUnits="userSpaceOnUse">
<stop offset="0.479167" stop-color="white"/>
<stop offset="0.5" stop-color="#507FB5"/>
</linearGradient>
<linearGradient id="paint1_linear_326_61576" x1="2.58875" y1="0" x2="2.58875" y2="82.8399" gradientUnits="userSpaceOnUse">
<stop offset="0.479167" stop-color="white"/>
<stop offset="0.5" stop-color="#507FB5"/>
</linearGradient>
<linearGradient id="paint2_linear_326_61576" x1="2.58875" y1="0" x2="2.58875" y2="82.8399" gradientUnits="userSpaceOnUse">
<stop offset="0.479167" stop-color="white"/>
<stop offset="0.5" stop-color="#507FB5"/>
</linearGradient>
<linearGradient id="paint3_linear_326_61576" x1="2.58875" y1="0" x2="2.58875" y2="82.8399" gradientUnits="userSpaceOnUse">
<stop offset="0.479167" stop-color="white"/>
<stop offset="0.5" stop-color="#507FB5"/>
</linearGradient>
<linearGradient id="paint4_linear_326_61576" x1="2.58875" y1="0" x2="2.58875" y2="82.8399" gradientUnits="userSpaceOnUse">
<stop offset="0.479167" stop-color="white"/>
<stop offset="0.5" stop-color="#507FB5"/>
</linearGradient>
</defs>
</svg>
