<svg width="30" height="30" viewBox="0 0 30 30" fill="none" xmlns="http://www.w3.org/2000/svg">
<g clip-path="url(#clip0_326_61497)">
<path d="M14.9998 5.97305C15.3233 5.97305 15.5857 5.71067 15.5857 5.38711V2.40234C15.5857 2.07879 15.3234 1.81641 14.9998 1.81641C14.6761 1.81641 14.4138 2.07873 14.4138 2.40234V5.38711C14.4139 5.71067 14.6762 5.97305 14.9998 5.97305Z" fill="#679FF5" fill-opacity="0.91"/>
<path d="M10.5946 6.93507C10.706 7.11184 10.8962 7.20864 11.0908 7.20864C11.1976 7.20864 11.3057 7.17946 11.4026 7.11835C11.6764 6.94585 11.7584 6.58403 11.5859 6.31022L10.0248 3.83317C9.8522 3.55942 9.49038 3.47733 9.21669 3.64989C8.94294 3.82239 8.86091 4.1842 9.03341 4.45801L10.5946 6.93507Z" fill="#679FF5" fill-opacity="0.91"/>
<path d="M18.599 7.11847C18.696 7.17947 18.804 7.20859 18.9106 7.20859C19.1053 7.20859 19.2956 7.11168 19.407 6.93478L20.9666 4.45773C21.1389 4.18386 21.0567 3.82217 20.7829 3.64967C20.5089 3.47734 20.1473 3.55961 19.9749 3.83336L18.4153 6.31041C18.2429 6.58433 18.3252 6.94603 18.599 7.11847Z" fill="#679FF5" fill-opacity="0.91"/>
<path d="M29.8111 15.6112L28.7931 13.8127C28.6336 13.531 28.276 13.4319 27.9946 13.5914C27.7129 13.7509 27.6139 14.1083 27.7733 14.3899L28.7909 16.1876C28.8419 16.278 28.8287 16.3651 28.8163 16.409C28.8043 16.4513 28.7714 16.5293 28.6852 16.5768L27.1162 17.4459C26.9768 17.5229 26.7949 17.4743 26.7189 17.3402L26.3203 16.6351C26.3186 16.632 26.3168 16.629 26.3151 16.6259L22.1942 9.33722C22.1433 9.24751 22.1561 9.1615 22.1683 9.1182C22.1801 9.0763 22.2128 8.9989 22.2989 8.95126L23.8698 8.08197C24.011 8.0038 24.1885 8.05126 24.2656 8.18802L25.184 9.81066C25.3435 10.0923 25.7011 10.1913 25.9825 10.032C26.2642 9.87259 26.3632 9.51505 26.2039 9.23345L25.2859 7.61152C24.8943 6.91742 24.0048 6.66845 23.3027 7.05652L21.7319 7.92582C21.392 8.11367 21.1464 8.42415 21.0405 8.80027C20.9405 9.15488 20.9762 9.52507 21.1399 9.84997L20.2746 10.1008C19.906 10.2074 19.6823 10.2652 19.5581 10.2652C19.5576 10.2652 19.5571 10.2652 19.5566 10.2652C19.4711 10.2649 19.3779 10.2323 19.1118 10.1315C18.9911 10.0858 18.8408 10.0289 18.6561 9.96441L17.123 9.42845C16.2751 9.13232 15.8926 9.14826 15.3386 9.19882L12.7244 9.43279C11.5326 9.53837 10.7728 9.8072 10.3534 10.2734L8.86362 9.84177C9.02393 9.51828 9.05833 9.15165 8.9593 8.80027C8.85337 8.42439 8.60798 8.11396 8.26843 7.92611L6.69847 7.0564C5.99581 6.66798 5.10571 6.91707 4.71413 7.61099L0.190458 15.6104C-0.00319482 15.9513 -0.0511245 16.3479 0.0556333 16.7271C0.161688 17.1036 0.407196 17.4144 0.746454 17.602L2.31641 18.4716C2.54089 18.5957 2.78475 18.6546 3.0254 18.6546C3.53663 18.6546 4.03362 18.3887 4.30075 17.917L4.46663 17.6236C4.91932 17.8229 5.29942 18.1124 5.55847 18.4552C5.30546 18.7508 5.14608 19.1157 5.10138 19.5126C5.04231 20.0374 5.19055 20.5523 5.5188 20.9627C5.84423 21.3697 6.30958 21.6264 6.82995 21.6869C6.77487 22.2073 6.9237 22.7172 7.24942 23.123C7.5861 23.544 8.06194 23.7895 8.5597 23.8475C8.50485 24.3671 8.65315 24.8765 8.97788 25.2826C9.30313 25.6904 9.7686 25.9477 10.2895 26.0082C10.2344 26.529 10.3832 27.0392 10.7089 27.4451C11.0972 27.9305 11.6703 28.1832 12.2489 28.1831C12.6809 28.1831 13.1159 28.0423 13.4791 27.7522L14.7059 26.7706C14.8033 26.6928 14.8919 26.6068 14.9715 26.5143L15.6723 27.0741C16.0347 27.3633 16.4687 27.5038 16.9 27.5037C17.479 27.5037 18.0531 27.2507 18.4418 26.7648C18.6467 26.5086 18.7765 26.2163 18.835 25.9144C19.0399 25.9853 19.2563 26.022 19.4768 26.0219C19.5508 26.0219 19.6252 26.0178 19.6998 26.0095C20.2248 25.9512 20.6943 25.6931 21.0205 25.284C21.3468 24.8775 21.4956 24.3676 21.4406 23.8473C21.938 23.7892 22.4141 23.5437 22.7517 23.123C23.0881 22.7025 23.2231 22.1847 23.1702 21.6868C23.6903 21.6262 24.1554 21.3695 24.4801 20.9635C24.8086 20.5542 24.9575 20.04 24.8993 19.5156C24.8551 19.1175 24.6956 18.7514 24.4421 18.4549C24.7004 18.1123 25.0797 17.8224 25.5327 17.6233L25.699 17.9173C25.9659 18.3887 26.4627 18.6546 26.974 18.6546C27.2148 18.6545 27.4589 18.5956 27.6836 18.4713L29.2527 17.6022C29.5918 17.4147 29.8372 17.1043 29.9437 16.7285C30.051 16.3497 30.0041 15.9531 29.8111 15.6112ZM3.28087 17.34C3.2047 17.4745 3.02264 17.523 2.88384 17.4462L1.31393 16.5767C1.22821 16.5292 1.19552 16.4515 1.18356 16.4094C1.17132 16.3657 1.15825 16.2791 1.20993 16.1882L5.7343 8.18726C5.7861 8.09544 5.88372 8.044 5.98509 8.044C6.03442 8.044 6.08458 8.05613 6.13087 8.08173L7.70036 8.95115C7.70054 8.95126 7.70071 8.95138 7.70089 8.95144C7.78679 8.99896 7.81942 9.07636 7.83126 9.11826C7.84345 9.16156 7.85634 9.24757 7.80483 9.33828L3.28087 17.34ZM7.55669 20.3552C7.39145 20.4876 7.1828 20.5474 6.96958 20.5236C6.75624 20.5 6.5661 20.396 6.43403 20.2309C6.30167 20.0654 6.24202 19.8568 6.26599 19.6436C6.28983 19.4313 6.39384 19.2421 6.55989 19.11L8.75352 17.3565C9.09782 17.0817 9.60179 17.1382 9.87694 17.4819C10.0092 17.6473 10.069 17.8555 10.045 18.068C10.0213 18.2799 9.9172 18.4689 9.75208 18.6002C9.74845 18.6031 9.74534 18.6063 9.74182 18.6093L7.55722 20.3548C7.55704 20.3549 7.55686 20.3551 7.55669 20.3552ZM8.16395 22.3904C8.03171 22.2256 7.97194 22.0178 7.99555 21.8055C8.01917 21.593 8.12329 21.4029 8.28864 21.2703L8.28882 21.2702C8.28893 21.2701 8.28905 21.27 8.28917 21.27C8.28923 21.27 8.28923 21.2699 8.28929 21.2698L11.449 18.7454C11.7933 18.4705 12.2973 18.5266 12.5724 18.8707C12.7046 19.0359 12.7643 19.2439 12.7407 19.4564C12.717 19.6691 12.6126 19.8591 12.4468 19.9916L9.2879 22.5151C8.94325 22.7901 8.43934 22.7346 8.16395 22.3904ZM10.4291 24.8449C10.2158 24.8212 10.0258 24.7171 9.89358 24.5513C9.76145 24.3861 9.70175 24.1781 9.72536 23.9657C9.74903 23.7532 9.85327 23.5633 10.0188 23.4308C10.0189 23.4307 10.0191 23.4306 10.0192 23.4305L12.2058 21.6837C12.2084 21.6817 12.2112 21.68 12.2138 21.6779C12.5571 21.4031 13.061 21.459 13.3364 21.8023C13.4688 21.9677 13.5285 22.1763 13.5045 22.3895C13.4806 22.6018 13.3766 22.791 13.2106 22.9231L11.0171 24.6765C10.8513 24.8089 10.6424 24.8684 10.4291 24.8449ZM14.268 25.3205C14.2443 25.5331 14.1402 25.7227 13.9743 25.8551L12.7474 26.837C12.4027 27.1121 11.8988 27.0567 11.6236 26.7124C11.4913 26.5477 11.4315 26.3398 11.4551 26.1271C11.4787 25.9143 11.5827 25.7245 11.7478 25.5927C11.748 25.5926 11.7482 25.5924 11.7484 25.5923L12.975 24.6118C12.9756 24.6113 12.9763 24.6109 12.977 24.6104C13.3213 24.3356 13.8253 24.3919 14.1004 24.7357C14.2322 24.9006 14.2918 25.1082 14.268 25.3205ZM23.5656 20.2309C23.4335 20.396 23.2433 20.5 23.03 20.5236C22.8169 20.5476 22.6081 20.4876 22.4429 20.3552C22.4428 20.3551 22.4427 20.3551 22.4426 20.355C22.4425 20.355 22.4424 20.3549 22.4424 20.3548L20.8745 19.1022C20.6216 18.9001 20.253 18.9414 20.051 19.1942C19.8491 19.4469 19.8903 19.8157 20.143 20.0176L21.7104 21.2699C22.0542 21.5452 22.1108 22.0482 21.8372 22.3903C21.5611 22.7344 21.0572 22.7903 20.7131 22.5148L19.0124 21.1576C18.7595 20.9558 18.3908 20.9973 18.189 21.2501C17.9872 21.503 18.0286 21.8717 18.2815 22.0736L19.9814 23.4301C20.147 23.5627 20.2513 23.7529 20.2749 23.9657C20.2985 24.178 20.2388 24.3858 20.1054 24.5519C19.9736 24.7171 19.7837 24.8211 19.5705 24.8449C19.357 24.8684 19.1481 24.8088 18.983 24.677L18.1368 24.0002C18.1353 23.9991 18.134 23.9978 18.1326 23.9967L17.4176 23.4251L17.284 23.3182C17.0311 23.1161 16.6625 23.1571 16.4604 23.4098C16.4352 23.4414 16.4137 23.4748 16.396 23.5095C16.3111 23.6753 16.3125 23.8698 16.3922 24.0329C16.429 24.1084 16.4821 24.1774 16.5521 24.2333L17.4029 24.9138C17.7444 25.1896 17.8003 25.6909 17.5268 26.0327C17.2516 26.3767 16.7476 26.4329 16.4035 26.1584L15.4381 25.3872C15.4783 24.8857 15.3297 24.3966 15.0154 24.0036C14.8201 23.7595 14.5778 23.5746 14.3117 23.4505C14.5067 23.18 14.6305 22.8622 14.669 22.5205C14.728 21.9957 14.5798 21.4808 14.251 21.0696C14.0556 20.8261 13.8136 20.6416 13.548 20.5178C13.7434 20.2465 13.8672 19.928 13.9053 19.5859C13.9636 19.0623 13.8152 18.5483 13.4875 18.1386C12.9238 17.4337 11.9703 17.2194 11.1768 17.5562C11.1133 17.2645 10.9835 16.9894 10.7919 16.7498C10.1135 15.9021 8.87118 15.7634 8.0221 16.4408L6.45319 17.6949C6.09841 17.2422 5.61612 16.8667 5.04589 16.5989L8.27317 10.8907L9.99149 11.3885C9.99934 11.4805 10.0142 11.5771 10.0391 11.6796C10.4551 13.3898 12.0297 14.1867 14.1487 13.7597C15.934 13.4005 16.669 13.9356 18.1329 15.0016C18.2847 15.1122 18.4425 15.2271 18.6077 15.3454C19.6605 16.1006 20.7855 16.9884 21.5397 17.5901L23.4417 19.1101C23.6069 19.242 23.7109 19.4318 23.7345 19.6447C23.7582 19.8575 23.6984 20.0654 23.5656 20.2309ZM23.5473 17.6946L22.271 16.6745C21.5063 16.0645 20.3654 15.1643 19.2905 14.3931C19.1276 14.2764 18.9723 14.1633 18.8227 14.0544C17.3048 12.9491 16.2078 12.1504 13.9174 12.611C13.2164 12.7523 11.5463 12.9175 11.1779 11.4029C11.126 11.1891 11.1787 11.1157 11.2012 11.0843C11.2795 10.9751 11.5947 10.7093 12.8281 10.6L15.445 10.3658C15.8715 10.3269 16.0854 10.3074 16.7363 10.5347L18.2696 11.0707C18.44 11.1302 18.5763 11.1818 18.6966 11.2274C19.4349 11.5071 19.6305 11.507 20.6004 11.2263L21.7308 10.8987L24.9538 16.5993C24.3834 16.8669 23.9015 17.242 23.5473 17.6946Z" fill="#679FF5" fill-opacity="0.91"/>
<path d="M26.9866 12.3983C27.3101 12.3983 27.5725 12.1351 27.5725 11.8115C27.5725 11.4879 27.3101 11.2256 26.9866 11.2256C26.663 11.2256 26.4006 11.488 26.4006 11.8115V11.8132C26.4006 12.1368 26.663 12.3983 26.9866 12.3983Z" fill="#679FF5" fill-opacity="0.91"/>
</g>
<defs>
<clipPath id="clip0_326_61497">
<rect width="30" height="30" fill="white"/>
</clipPath>
</defs>
</svg>
