<svg width="52" height="74" viewBox="0 0 52 74" fill="none" xmlns="http://www.w3.org/2000/svg">
<rect width="51.9677" height="3.35276" rx="0.3" fill="#1D1C56"/>
<rect y="69.9751" width="51.9677" height="3.35276" rx="0.3" fill="#1D1C56"/>
<rect x="5.02927" y="5.03027" width="41.9094" height="3.35276" rx="0.3" fill="#1D1C56"/>
<rect x="5.02927" y="65.3794" width="41.9094" height="3.35276" rx="0.3" fill="#1D1C56"/>
<rect width="3.35276" height="50.2913" rx="0.3" transform="matrix(-1 0 0 1 16.764 11.7349)" fill="#1D1C56"/>
<rect width="3.35276" height="50.2913" rx="0.3" transform="matrix(-1 0 0 1 21.7929 11.7349)" fill="#1D1C56"/>
<rect width="3.35276" height="50.2913" rx="0.3" transform="matrix(-1 0 0 1 26.8218 11.7349)" fill="#1D1C56"/>
<rect width="3.35276" height="50.2913" rx="0.3" transform="matrix(-1 0 0 1 31.8514 11.7349)" fill="#1D1C56"/>
<rect width="3.35276" height="50.2913" rx="0.3" transform="matrix(-1 0 0 1 36.8803 11.7349)" fill="#1D1C56"/>
</svg>
